<svg width="320" height="320" xmlns="http://www.w3.org/2000/svg">
 <!-- Created with Method Draw - http://github.com/duopixel/Method-Draw/ -->

 <g>
  <title>background</title>
  <rect fill="none" id="canvas_background" height="322" width="322" y="-1" x="-1"/>
  <g display="none" overflow="visible" y="0" x="0" height="100%" width="100%" id="canvasGrid">
   <rect fill="url(#gridpattern)" stroke-width="0" y="0" x="0" height="100%" width="100%"/>
  </g>
 </g>
 <g>
  <title>Layer 1</title>
  <g id="svg_12">
   <path fill="#1983c1" id="svg_4" d="m134.82038,223.21092l-19.81056,22.27152c-6.85548,6.85348 -9.6992,16.60348 -7.60936,26.08008c2.14452,9.71872 9.05468,17.375 18.96288,21.00584c9.95312,3.6504 21.21876,0.80272 28.69532,-7.24416c2.84376,-3.05468 8.03516,-3.05468 10.87892,0c0,0 0,0 0,0.00196c5.3164,5.7168 12.54492,8.8086 19.85544,8.8086c2.9746,0 5.96288,-0.51172 8.8418,-1.5664c9.90624,-3.63088 16.8164,-11.28712 18.96096,-21.00588c2.08984,-9.47656 -0.75392,-19.22656 -7.44924,-25.91012l-19.96876,-22.44336c-6.51952,-7.32228 -15.87888,-11.52152 -25.67968,-11.52152c-9.80272,0.00004 -19.16016,4.19924 -25.67772,11.52344zm25.67772,-3.5234c7.51952,0 14.70116,3.22264 19.70312,8.83984l20.12892,22.61132c4.91408,4.91404 6.95116,11.90428 5.45312,18.70116c-1.54296,6.99804 -6.61132,12.54492 -13.9004,15.2168c-6.92772,2.5332 -14.80664,0.49804 -20.08592,-5.17772c-2.9082,-3.13088 -7.02736,-4.9258 -11.29884,-4.9258s-8.3906,1.79492 -11.29884,4.92384c-5.28124,5.67968 -13.16796,7.71288 -20.08396,5.17968c-7.29104,-2.67188 -12.3594,-8.21876 -13.90236,-15.2168c-1.49804,-6.79688 0.53908,-13.78712 5.61328,-18.87108l19.97072,-22.43948c5,-5.61912 12.18164,-8.84176 19.70116,-8.84176z"/>
   <path fill="#1983c1" id="svg_5" d="m180.99422,200.54688c0.53124,0.05468 1.06052,0.08204 1.58788,0.08204c3.71092,0 7.33008,-1.3594 10.55272,-3.97852c5.23244,-4.25784 8.69728,-11.23632 9.50196,-19.14844c1.43164,-14.02932 -5.82616,-25.8926 -16.5254,-27.00976c-4.25976,-0.43948 -8.45704,0.90624 -12.13868,3.89648c-5.23436,4.2578 -8.6992,11.23828 -9.50388,19.15232c-1.42968,14.02932 5.83008,25.89064 16.5254,27.00588zm-8.56836,-26.19728c0.58396,-5.72852 3.0488,-10.87108 6.59372,-13.75388c1.26368,-1.02736 3.20312,-2.1836 5.5332,-2.1836c0.24024,0 0.48244,0.01172 0.72852,0.03708c6.03908,0.63088 10.3418,8.9844 9.39844,18.2422c-0.58396,5.72852 -3.04884,10.86916 -6.59376,13.75196c-1.38864,1.1328 -3.58984,2.41992 -6.26364,2.14648c-6.03516,-0.62892 -10.33792,-8.98048 -9.39648,-18.24024z"/>
   <path fill="#1983c1" id="svg_6" d="m208.12898,223.01952c2.14452,1.12112 4.4824,1.68556 6.92576,1.68556c1.7422,0 3.53908,-0.28712 5.35352,-0.86524c6.13868,-1.95312 11.64064,-6.9492 15.09572,-13.70704c6.1328,-11.99804 3.76172,-25.15036 -5.39844,-29.94336c-3.67776,-1.9238 -7.91992,-2.20508 -12.28128,-0.81836c-6.13864,1.95508 -11.63864,6.9512 -15.09372,13.70704c-6.13284,12 -3.76172,25.1504 5.39844,29.9414zm1.72656,-26.30076c2.45116,-4.79688 6.33788,-8.4336 10.39648,-9.7246c0.81056,-0.2598 1.8242,-0.48048 2.91404,-0.48048c1.043,0 2.15628,0.20312 3.23244,0.7656c5.04688,2.64064 5.95508,11.43948 1.98048,19.21292c-2.4512,4.79688 -6.33792,8.4336 -10.39648,9.7246c-1.58988,0.50392 -3.93948,0.8672 -6.14652,-0.28712c-5.0488,-2.63868 -5.95508,-11.43748 -1.98044,-19.21092z"/>
   <path fill="#1983c1" id="svg_7" d="m127.86138,196.6504c3.22268,2.62108 6.8418,3.97852 10.55276,3.97852c0.52732,0 1.05856,-0.02736 1.58788,-0.08204c10.69724,-1.11524 17.95704,-12.97656 16.5254,-27.0078l0,0.00192c-0.80472,-7.91404 -4.26956,-14.89452 -9.50392,-19.15232c-3.67968,-2.9922 -7.86916,-4.33596 -12.14064,-3.89648c-10.69724,1.11716 -17.95508,12.98044 -16.52344,27.0078c0.80472,7.91408 4.26956,14.89256 9.50196,19.1504zm7.85156,-38.2012c0.24804,-0.02536 0.49024,-0.03708 0.72852,-0.03708c2.33204,0 4.27148,1.15624 5.53516,2.1836c3.54492,2.8828 6.00976,8.02536 6.59376,13.75388c0,0.00196 0,0.00196 0,0.00196c0.94336,9.2578 -3.3594,17.60936 -9.39648,18.23828c-2.67384,0.27148 -4.87112,-1.01368 -6.26368,-2.14648c-3.54492,-2.8828 -6.00976,-8.02344 -6.59376,-13.75392c-0.94336,-9.25584 3.3594,-17.60936 9.39648,-18.24024z"/>
   <path fill="#1983c1" id="svg_8" d="m100.58794,223.83984c1.81448,0.57812 3.61132,0.86524 5.35548,0.86524c2.4414,0 4.77928,-0.56444 6.92384,-1.68556c9.16016,-4.791 11.53124,-17.9414 5.39844,-29.9414c-3.45508,-6.75584 -8.95508,-11.75196 -15.09376,-13.70704c-4.35744,-1.38864 -8.60548,-1.10352 -12.28124,0.81836c-9.16016,4.793 -11.53128,17.94532 -5.39844,29.94336c3.45508,6.75784 8.957,11.75392 15.09568,13.70704zm-5.99024,-36.56056c1.0762,-0.56248 2.18948,-0.7656 3.23244,-0.7656c1.08984,0 2.10352,0.22264 2.91408,0.48048c4.05856,1.291 7.94528,4.92772 10.39648,9.7246c3.9746,7.77344 3.06836,16.57224 -1.98048,19.21092c-2.20704,1.15432 -4.55664,0.79104 -6.14648,0.28712c-4.0586,-1.291 -7.94532,-4.92772 -10.39648,-9.7246c-3.97464,-7.77344 -3.0664,-16.57228 1.98044,-19.21292z"/>
   <path fill="#1983c1" id="svg_9" d="m15.76178,294.16212c1.40236,14.73044 13.61912,25.83788 28.41796,25.83788l231.6426,0c14.79688,0 27.01364,-11.10744 28.416,-25.83788l15.74416,-165.25196c0.10544,-1.12108 -0.26564,-2.23632 -1.02344,-3.07032s-1.83204,-1.3086 -2.959,-1.3086l-4.12696,0l0,-4.666c0,-44.94728 -36.5664,-81.51368 -81.51172,-81.51368c-2.22068,0 -4.53712,0.11132 -7.0254,0.33984c-15.99804,-24.27732 -42.60936,-38.6914 -71.68748,-38.6914c-37.22072,0 -69.5996,23.35744 -81.40428,58.40624c-33.97584,3.76028 -60.37772,32.0364 -61.96436,66.125l-4.2798,0c-1.12696,0 -2.20116,0.4746 -2.959,1.3086s-1.12888,1.94924 -1.02344,3.07032l15.74416,165.25196zm280.51172,-0.75784c-1.00976,10.60156 -9.8008,18.59572 -20.45116,18.59572l-231.6426,0c-10.6504,0 -19.44336,-7.99416 -20.45312,-18.59572l-15.32812,-160.87304l303.20312,0l-15.32812,160.87304zm-222.74416,-227.2656c1.65432,-0.1172 3.06448,-1.24416 3.54492,-2.83008c10.0254,-33.08204 39.99612,-55.3086 74.57424,-55.3086c27.12696,0 51.89256,13.84376 66.24608,37.03124c0.81836,1.31836 2.334,2.03516 3.86328,1.8672c3.15628,-0.3672 5.96876,-0.54688 8.60352,-0.54688c40.53516,0 73.51172,32.97852 73.51172,73.51368l0,4.666l-287.58936,0c1.6206,-30.81444 26.1416,-56.17872 57.2456,-58.39256z"/>
  </g>
 </g>
</svg>