<svg width="275" height="381" xmlns="http://www.w3.org/2000/svg">
 <!-- Created with Method Draw - http://github.com/duopixel/Method-Draw/ -->

 <g>
  <title>background</title>
  <rect fill="none" id="canvas_background" height="383" width="277" y="-1" x="-1"/>
  <g display="none" overflow="visible" y="0" x="0" height="100%" width="100%" id="canvasGrid">
   <rect fill="url(#gridpattern)" stroke-width="0" y="0" x="0" height="100%" width="100%"/>
  </g>
 </g>
 <g>
  <title>Layer 1</title>
  <g id="svg_25">
   <path id="svg_7" d="m38.6818,212.98034c-6.4,5.6 -12.8,10.4 -18.8,16.4c-6.4,6.4 -13.6,13.2 -18,21.2c-4,7.2 -0.8,13.6 2,20.8c2.8,7.6 4.8,18 12.4,22c6.8,3.2 22.4,7.2 22.4,7.2c-16.8,14 -32.8,32.8 -27.6,56c2,8.8 8,16.4 16.4,20.4c0.8,0.8 4.8,2.4 4.8,2.4c2,0.4 4.4,0.8 6.4,0.4c1.6,0 6,-1.6 6.8,-1.6c4.4,-2 8.4,-4.4 12.4,-7.2c1.2,-1.2 2.8,-2.4 4.4,-3.6c2.4,-2.4 4.4,-4.4 7.6,-5.6c2,0.4 4,0.8 6,0.8c4.4,0.4 8.8,0.4 13.2,-1.2c3.2,-1.2 5.6,-3.6 8,-6c1.6,-2 3.2,-3.6 5.2,-5.2c0.8,-0.8 1.6,-1.6 2.4,-2c2.8,-2.4 6,-3.6 9.6,-4.8c1.2,-0.4 2.8,-0.4 4,-0.8c0.4,0 0.8,-0.4 1.6,-0.4c0.8,-0.4 2,-0.8 2.8,-1.2c2.8,-1.2 5.6,-2.4 8.4,-3.6c0,0 0,0 0,0c0.4,-0.4 1.2,-0.4 1.6,-0.8c2.8,-1.6 5.2,-4 8.8,-4.4c0.4,0 0.4,0 0.8,0c0,0 0,0 0.4,0c4.4,-0.4 8.8,0 13.2,0.8c5.2,0.4 10.8,1.6 16,2c2,0 3.6,0.4 5.6,0.4c3.6,0 7.6,-0.8 11.2,-1.2c5.6,-1.2 11.2,-2.8 16.4,-5.2c9.2,-4 17.6,-9.6 24.4,-16.8c5.6,-5.6 10,-12.4 14.8,-19.2c3.2,-2.8 6,-5.6 9.2,-8.4c1.2,-1.6 2.8,-3.2 4,-4.8c2.4,-2.8 4.8,-6 7.2,-8.8c5.2,-8.8 6.4,-18.8 2.8,-28.4c-2,-4.8 -4.8,-9.6 -6.8,-14.4c-1.2,-3.2 -2,-5.6 -2,-8.4c2,-10.4 13.2,-16.4 12,-28.4c-0.8,-6 -5.6,-11.6 -4.8,-17.6c0.8,-6 6,-10 7.2,-16c1.6,-5.6 -0.4,-11.2 -0.8,-16.8c-0.4,-2.8 -0.4,-5.6 -0.4,-8.4c0,0 0,-0.4 0,-0.4c0.4,-4.4 0.8,-8.4 1.6,-12.8c0.8,-5.2 1.2,-10.4 -0.8,-15.6c-1.2,-3.6 -3.2,-6.8 -4.8,-10c-1.2,-7.6 1.2,-14.4 2.4,-22c2,-12.8 -4.4,-25.6 -12.4,-35.2c-8.8,-10.8 -19.2,-0.4 -25.2,7.6c-9.2,12 -16.8,25.2 -23.2,38.8c-2.8,6.4 -5.2,13.2 -7.6,19.6c-2,5.6 -4.8,11.6 -9.6,14.4c-0.4,-0.4 -0.8,-0.8 -1.6,-0.8c-0.4,0 -0.4,0 -0.8,-0.4c1.6,-1.2 2.8,-2.4 4,-3.6c2.4,-2.4 4,-5.2 5.6,-8.4c0.8,-2 -2.8,-3.2 -3.6,-0.8c-1.2,2.4 -2.8,4.8 -4.4,6.8c-1.6,2 -3.6,4 -6,4.4c-5.6,-2 -20,-5.2 -20.4,-5.6c-12,-2.4 -19.2,-6.4 -24.4,-16.8c-7.6,-14 -9.6,-30.4 -12.8,-45.6c-2.8,-14 -6.4,-30.4 -15.6,-42c-3.2,-4 -7.6,-6 -12,-2c-2.8,2.8 -4.4,7.2 -6.4,10.4c-2.4,4.4 -4.4,8.4 -6.8,12.8c-11.6,24.4 -18.4,49.6 -23.2,75.6c0,5.2 0,10 -0.4,15.2c-0.8,5.2 -2.4,10 -4.4,14.8c0,0.4 -0.4,0.8 -0.4,1.2c-0.8,5.2 -1.6,10 -2.4,15.2c0.4,3.2 2,6.8 2,10c0,0.8 0,1.6 -0.4,2c-2,2.4 -3.6,4.8 -4.8,7.6c-0.4,0.8 -0.4,1.6 -0.8,2.4c-0.8,2.4 -1.2,5.2 -0.8,8c0,0 0,0.4 0,0.4c-2,2 -3.2,4.8 -3.6,7.6c-0.4,2.4 0.4,4.8 1.2,6.8c-1.6,8.8 -4,15.2 -10.4,20.8zm10,3.2c6,2.8 12,6 17.6,9.6c-2,0.8 -3.6,1.2 -5.6,1.6c-0.8,-0.4 -2,-0.8 -2.8,-1.2c-4.4,-2.4 -8.4,-4.4 -12.8,-6.8c1.2,-1.2 2.4,-2.4 3.6,-3.2zm20.4,-64c-0.4,0.4 -0.8,0.8 -1.2,1.2c-0.4,0.4 -0.8,0.8 -1.6,1.2c-0.4,0 -0.4,-0.4 -0.8,-0.4c-2,-1.2 -0.4,-4 2,-3.2c0.4,0.4 0.8,0.8 1.6,1.2zm6.8,22c-0.8,6 -2.4,11.2 -5.6,16.4c-1.2,-0.4 -2,-1.2 -3.2,-2c2,-3.6 3.6,-7.2 4.4,-11.2c0,-0.4 0.4,-1.2 0.4,-1.6c0,0 0,0 0,-0.4c0.4,-1.2 0.4,-2.8 0.4,-4.4c0,0 0,-0.4 0,-0.4c0,-2.8 0,-5.6 -0.8,-8c1.2,-0.4 2,-1.2 3.2,-1.6c1.6,4.4 1.6,9.2 1.2,13.2zm-15.2,23.2c0.4,-0.4 0.4,-0.4 0.8,-0.8c0.8,0.8 1.6,1.6 2.8,2c0,0 0,0 0,0c0,0 0,0 -0.4,0.4c-0.8,0.4 -1.2,0.8 -2,1.2c-1.2,0.4 -2.4,-1.6 -1.2,-2.8zm3.6,-24.8c0.4,-0.8 0.8,-1.2 1.6,-1.6c0,0 0,0 0,0c0.4,0 0.8,0.4 1.2,0.8c-0.4,0.8 -0.4,1.6 -0.8,2.8c0,0 -0.4,0 -0.4,0c-0.4,0 -1.6,-0.8 -1.6,-2c0,0 0,0 0,0zm-0.4,21.2c0.4,-0.8 1.2,-1.2 1.6,-2c0.8,0.8 2,1.2 3.2,2c-0.4,0.8 -1.2,1.6 -2,2.4c0,0 -0.4,0 -0.4,-0.4c-0.4,-0.4 -0.8,-0.4 -0.8,-0.8c-0.8,-0.4 -1.2,-0.8 -1.6,-1.2zm-2.8,-19.2c0.8,1.2 1.6,2.4 3.2,2.8c0.4,0.4 0.4,0.8 0,1.2c-0.4,0.4 -0.8,0.8 -1.2,0.4c-1.2,-0.8 -2,-1.6 -2.4,-2.8c-0.4,-0.8 0,-1.6 0.4,-1.6zm9.2,-15.2c-0.4,-0.8 -0.8,-1.6 -1.6,-2.4c0.4,-0.4 0.8,-0.4 0.8,-0.8c0.4,-0.4 1.2,-1.2 1.6,-1.6c0.8,0.8 1.2,2 2,3.2c-0.8,0.8 -1.6,1.2 -2.8,1.6zm-10.4,4.8c0.4,-0.4 0.8,-0.8 1.6,-1.2c0.8,-0.4 2,-0.8 2.8,-0.8c0.4,0 0.4,0 0.8,0c0.8,0.8 1.2,2 1.6,2.8c-2,0 -3.6,0.8 -5.6,2.8c-4.8,6 -2.4,12.4 2,14c-0.4,0 -0.4,0 -0.8,0c-0.8,0 -2,0 -2.8,-0.4c-0.4,0 -0.8,-0.4 -1.2,-0.4c0,0 0,0 0,0c-1.2,-1.2 -2.4,-1.6 -2.8,-4.4c-0.4,-2.8 1.2,-7.6 2,-8.8c0.8,-1.6 1.6,-2.4 2.4,-3.6zm2.4,21.2c-0.8,1.2 -2,2.4 -2.8,3.2c-0.8,0 -1.6,-0.4 -2,-0.4c-2,-0.8 -3.6,-1.6 -5.2,-3.2c0,0 0,0 0,0c0,-0.8 0.4,-1.6 1.2,-2.4c2,2 5.2,2.8 8.8,2.8zm65.6,97.2c5.2,-1.6 13.2,-4.8 18.4,-0.8c-3.6,0 -7.6,0.8 -11.6,2c-1.6,0 -3.2,0.4 -4.4,0.8c-1.6,0.4 -2.8,1.2 -4.4,2.4c-1.6,0.4 -3.6,1.2 -5.2,1.6c-1.2,0.4 -2.4,0.8 -4,1.2c-1.6,0.8 -3.6,1.6 -5.2,2.4c-8.4,3.6 -17.2,6.4 -26.4,8c0.8,-0.8 1.6,-1.2 2.4,-2c1.6,-1.2 2.8,-2.8 3.6,-4.4c12.8,-2.4 24.8,-7.6 36.8,-11.2zm133.6,-41.2c-0.8,0.8 -2,1.6 -2.8,2.4c-0.4,-0.8 -0.8,-1.6 -1.2,-2.4c-0.4,-0.4 -0.4,-1.2 -0.8,-1.6c0.8,-0.8 2,-1.6 2.8,-2.4c0.8,1.2 1.6,2.8 2,4zm-7.2,-12.8c-1.2,0.8 -2,1.6 -3.2,2.4c-0.4,-0.4 -0.8,-1.2 -0.8,-1.6c0,0 0,-0.4 -0.4,-0.4c1.2,-0.8 2,-2 3.2,-2.8c0.4,0.8 0.8,1.6 1.2,2.4zm3.2,6c-0.8,0.8 -2,1.6 -2.8,2.4c-0.8,-0.8 -1.2,-1.6 -2,-2.8c0.8,-0.8 2,-1.6 3.2,-2.4c0.4,0.8 1.2,2 1.6,2.8zm-5.2,-12c-1.2,0.8 -2.4,2 -3.6,2.8c-0.4,-1.6 -0.4,-2.8 -0.4,-4c1.6,-0.8 2.8,-2 4.4,-3.2c-0.8,1.6 -0.8,2.8 -0.4,4.4zm15.2,-114.8c-1.2,0.4 -2.4,0.8 -3.2,1.2c-0.4,-1.2 -0.4,-2.4 -0.8,-3.6c1.2,-0.4 2.4,-0.8 3.2,-1.2c0,1.6 0.4,2.4 0.8,3.6zm0.4,8.4c-1.2,0.4 -2.4,0.8 -3.6,1.2c0,-0.8 0,-1.6 0.4,-2.4c0,-0.4 0,-1.2 0,-1.6c1.2,-0.4 2.4,-0.8 3.6,-1.2c-0.4,0.8 -0.4,2.4 -0.4,4zm-1.6,21.6c-1.2,0.4 -2.4,0.8 -3.6,1.2c0,-0.8 0,-1.2 0,-2c1.2,-0.4 2,-0.8 3.2,-1.2c0,0 0.4,0 0.4,-0.4c0,1.2 0,2 0,2.4zm2,21.2c-0.8,0.4 -1.2,0.4 -2,0.8c-1.6,0.4 -2.8,0.8 -4.4,1.6c-0.4,0 -0.4,0 -0.8,0.4c0,-0.8 0,-2 -0.4,-2.8c2.8,-1.2 5.6,-2.4 8.4,-3.2c0,0.4 -0.4,2 -0.8,3.2zm-8,-8c2.8,-1.2 5.6,-2 8.4,-3.2c0.4,0.8 0.4,1.6 0.4,2.4c0,0.4 0,0.4 0,0.8c-2.8,1.2 -6,2.4 -8.8,3.6c0,-1.2 0,-2.4 0,-3.6zm7.6,-6.4c-0.4,0 -0.8,0.4 -0.8,0.4c-1.2,0.4 -2.4,0.8 -3.6,1.2c-0.8,0.4 -1.6,0.8 -2.4,0.8c0.4,-1.2 0.4,-2.4 1.2,-3.2c0,0 0,-0.4 0.4,-0.4c0.4,0 0.8,-0.4 0.8,-0.4c1.2,-0.4 2.4,-0.8 3.6,-1.2c0,0 0.4,0 0.4,0c-0.4,0.8 0,1.6 0.4,2.8zm-4.4,21.2c-0.4,0.4 -0.4,1.2 -0.8,1.6c-1.6,0.8 -2.8,1.2 -4.4,2c0.4,-1.2 0.8,-2.8 1.2,-4c1.6,-0.4 3.2,-1.2 4.8,-1.6c0.4,0 0.8,-0.4 1.6,-0.4c-0.8,0.8 -1.6,1.6 -2.4,2.4zm3.2,-41.2c-1.2,0.4 -2.8,0.8 -4,1.2c0,0 0,-0.4 0,-0.4c0.4,-1.2 0.4,-2.8 0.8,-4c1.2,-0.4 2.8,-0.8 4,-1.2c-0.4,1.2 -0.4,2.8 -0.8,4.4zm-3.6,8.8c-0.4,0 -0.4,0 -0.8,0.4c0,-1.6 0,-2.8 0,-4.4c1.2,-0.4 2.8,-0.8 4,-1.2c0,1.2 0,2.8 0,4c-1.2,0.4 -2.4,0.8 -3.2,1.2zm2,-34c0,0.4 0.4,1.2 0.4,1.6c-1.2,0.4 -2.4,0.8 -3.2,1.2c0,-0.8 -0.4,-1.2 -0.4,-2c0,-0.4 0,-0.4 0,-0.4c0.8,-0.4 2,-0.8 3.2,-1.2c-0.4,0 0,0.4 0,0.8zm-9.6,-17.2c-2.4,-2 -5.2,-3.6 -7.6,-5.6c0,-1.2 -0.4,-2.8 -0.4,-4c2.8,1.6 5.2,3.2 7.6,5.2c0,1.2 0,2.8 0.4,4.4zm-7.6,-0.8c2.4,1.6 5.2,3.6 7.6,5.2c0,2 0,4 0,6c-2.4,-2.4 -4.8,-4.8 -7.6,-6.8c0,-1.2 0.4,-2.4 0,-3.6c0.4,-0.4 0.4,-0.8 0,-0.8zm1.6,-15.2c1.6,0.4 2.8,1.2 4,2.4c0.4,1.6 0.4,2.8 0.8,4.4c-2,-1.6 -4,-2.8 -6.4,-4c0.4,-1.2 1.2,-2 1.6,-2.8zm-7.2,39.2c1.2,-5.2 3.2,-10.4 4.8,-15.6c2.8,2.4 5.6,4.8 8,7.6c-0.8,12 -2.8,24 -5.2,35.6c-0.4,1.6 -0.8,3.2 -2.4,3.6c-2,0.4 -3.2,-2 -3.6,-4c-2,-8.8 -3.2,-18.4 -1.6,-27.2zm2.8,157.2c0,0.4 0,0.4 0,0.8c-3.2,0 -6.4,-0.4 -9.6,-0.8c-2.4,-0.4 -2.4,3.2 0,3.6c3.2,0.4 6.4,0.4 10,0.8c0,1.6 -0.4,3.2 -1.2,4.8c-3.2,-0.4 -6.8,-0.8 -10,-0.8c-2.4,0 -2.4,3.6 0,3.6c2.8,0 5.6,0 8.4,0.8c-0.8,1.6 -2,2.8 -2.8,4.4c-0.4,0.4 -0.4,0.8 -0.8,0.8c-2.4,-0.8 -5.2,-1.2 -7.6,-2c-2.4,-0.4 -3.2,2.8 -0.8,3.6c2,0.4 4,1.2 6,1.6c-1.6,2 -3.2,3.6 -4.8,5.2c-1.6,-1.2 -3.6,-2.4 -5.2,-4c-2,-1.2 -3.6,1.6 -2,3.2c1.6,1.2 3.2,2.4 4.8,3.2c-1.2,1.2 -2.8,2.4 -4,3.6c-1.6,-1.2 -3.2,-2.4 -4.4,-4c-1.6,-1.6 -4.4,1.2 -2.4,2.4c1.6,1.2 2.8,2.4 4.4,3.6c-1.6,1.6 -3.6,2.8 -5.2,4c-1.6,-1.6 -2.8,-3.2 -4,-4.8c-1.2,-2 -4.4,0 -3.2,2c1.2,2 2.4,3.6 4,5.2c-1.6,0.8 -2.8,2 -4.4,2.8c-3.2,-3.6 -6,-7.6 -9.2,-11.2c7.6,-3.2 15.2,-6.4 20.8,-12.8c1.2,-1.2 2,-2.8 1.2,-4c-0.4,-0.8 -1.2,-1.2 -2,-1.6c-10.8,-4.4 -24,10 -33.2,2.8c-2.4,-2 -4,-5.2 -5.2,-8c1.6,0.4 3.2,0.8 4.4,1.2c2.4,0.8 3.2,-2.8 0.8,-3.6c-2.4,-0.8 -4.8,-1.2 -7.2,-2c-0.4,-1.2 -0.8,-2.4 -1.2,-3.6c4,0.8 8,1.6 11.6,2.8c2.4,0.4 3.2,-2.8 0.8,-3.6c-4.8,-1.2 -9.2,-2.4 -14,-3.2c-0.4,-1.2 -0.8,-2 -1.2,-3.2c5.6,0.4 10.8,1.2 16.4,2.4c2.4,0.4 3.2,-3.2 0.8,-3.6c-6,-1.2 -12.4,-2 -18.4,-2.4c-0.4,-1.2 -0.8,-2.4 -1.2,-3.6c6.8,0.8 13.6,1.6 20.8,2.8c0,0 0,0 0,0c0,0 0,0 0,0c0.4,0 0.4,0 0.8,0c1.6,0.4 3.6,-8.8 3.2,-12c-0.4,-4.8 -1.2,-10 -1.6,-14.8c8.8,6 17.6,10.4 28,12.4c2.4,4.8 5.6,9.6 10,13.2c3.6,4.4 8.4,7.2 9.6,12zm-216.4,28.8c0.4,-0.4 0.8,-0.4 1.2,-0.8c0.4,0 0.8,0 1.2,0c6,-0.8 12,-3.6 17.6,-6.8c0.8,0.8 1.6,2 2.4,2.8c-6,3.2 -12.4,5.2 -19.6,6l-2.8,-1.2zm11.2,-65.2c2.4,0.8 4.8,1.6 7.2,2.4c2,0.8 1.2,4.4 -0.8,3.6c-2.4,-0.8 -4.8,-1.6 -7.2,-2.4c-2.4,-0.8 -1.2,-4.4 0.8,-3.6zm96,-38.8c-0.8,1.6 -1.2,3.2 -1.2,4.8c0,3.6 1.6,6.8 4.4,8.8c-5.2,-0.4 -7.6,-2.4 -7.6,-2.4c0,-2.8 0.4,-5.2 1.6,-7.6c0.8,-1.2 1.6,-2.8 2.8,-3.6zm34,128c0,0 -0.4,-0.4 -0.4,-0.4c-0.8,-1.2 -1.2,-2.4 -1.2,-4c0.8,1.2 1.2,2 2,3.2c0.4,0.4 0.8,1.2 1.2,1.6c-0.4,0 -1.2,0 -1.6,-0.4zm-88.8,30.4c-1.2,-0.4 -2.4,-0.4 -3.6,-0.8c0.8,-1.2 1.6,-2.4 2.4,-3.6c0,0 0,0 0,0c1.2,0.4 2,0.4 3.2,0.8c-0.8,0.4 -2,3.2 -2,3.6zm-4.4,6c-1.2,-0.4 -2.4,-0.8 -3.6,-1.2c0.8,-0.8 1.2,-1.6 2,-2.8c1.2,0.4 2.4,0.4 3.6,0.8c-0.4,1.2 -1.2,2 -2,3.2zm4.8,-13.6c0.4,-0.4 0.4,-0.8 0.8,-1.2c6.4,-10.8 11.6,-22.8 15.2,-35.2c1.2,-0.4 2.4,-0.8 4,-0.8c0,0.4 0,0.4 0,0.8c-0.8,3.2 -2,6 -2.8,9.2c-4,9.6 -8.4,18.8 -13.6,28c-1.6,-0.4 -2.4,-0.4 -3.6,-0.8zm66,-44.8c-0.4,0.4 -0.4,1.2 -0.8,1.6c-0.4,-0.4 -0.8,-0.8 -0.8,-1.2c-0.4,-0.4 -1.2,-0.8 -1.6,-1.2c-0.4,0 -0.4,-0.4 -0.8,-0.4c0.4,-0.4 0.8,-1.2 1.2,-1.6c0,0 0,0 0.4,0c0.8,0.4 2.8,2.4 2.4,2.8zm-6.4,1.6c1.2,0.8 2.4,1.6 3.6,2.8c-0.4,0.8 -1.2,1.6 -2,2.4c-1.2,-1.2 -2.4,-2 -4,-3.2c1.2,-0.4 1.6,-1.2 2.4,-2zm48.8,-54.8c-3.6,-0.4 -6.8,-0.8 -10.4,-1.2c-2.8,-0.8 -6.4,-0.8 -9.6,-2c-0.4,-0.8 -0.4,-2 -0.8,-2.8c2.4,0.4 5.2,1.2 7.6,1.6c3.2,0.4 12.8,4 13.2,4.4zm-18.4,0.8c1.6,0.4 3.6,0.8 5.2,0.8c4.8,0.8 10,1.6 14.8,2c0.8,1.6 1.2,2.8 2,4.4c-6.8,-0.8 -13.6,-2 -20.4,-2.4c-0.4,-1.6 -1.2,-3.2 -1.6,-4.8zm14.8,-9.2c0.4,0.4 0.4,1.2 0.8,1.6c-2.4,-0.4 -5.2,-0.8 -7.2,-1.2c-3.6,-0.8 -7.6,-1.6 -11.2,-2.4c0,-1.2 0,-2.4 0,-3.6c5.6,1.2 11.6,2.4 17.2,4.4c0,0.8 0.4,1.2 0.4,1.2zm-18,-34.8c-8.8,12.8 -25.2,16 -38.4,7.6c-0.8,-0.4 -0.8,-1.6 -0.8,-2.4c2.8,1.2 5.6,1.6 8.4,2c9.6,3.2 19.6,0.4 26.4,-7.6c0.8,-0.8 1.6,-1.6 2.4,-2.4c1.6,0 3.2,1.6 2,2.8zm-25.2,-0.8c6,2.4 10.4,-4.8 6,-9.2c-1.6,-1.6 0.8,-4 2.4,-2.4c3.2,3.2 4,8.4 1.2,12c-2.8,3.6 -7.6,4.8 -11.6,2.8c-2,-0.8 0,-4 2,-3.2zm-5.6,-6.4c0,-2 1.6,-3.6 3.6,-3.6c2,0 3.6,1.6 3.6,3.6c0,2 -1.6,3.6 -3.6,3.6c-2,0 -3.6,-1.6 -3.6,-3.6zm24.8,-0.4c0.4,0 0.4,0.4 0.4,0.4c0,0.4 0,0.8 0,0.8c-0.4,1.2 -0.8,2.4 -1.2,3.6c-2,1.6 -4,2.8 -6,4c1.2,-1.6 2,-4 2,-6c0,-3.2 -1.6,-6.4 -4,-8.4c3.2,1.2 6,3.6 8.8,5.6zm8.8,-0.8c-0.4,-0.4 -0.8,-0.4 -1.2,-0.8c0.8,-0.4 1.2,-1.2 2,-1.6c0.8,0.8 0,2 -0.8,2.4zm-43.2,3.6c-0.8,-0.4 -1.2,-0.8 -2,-1.6c0.4,-1.2 0.8,-2.4 1.2,-3.2c0.8,0.8 1.6,1.2 2.4,2c-0.8,1.2 -1.2,2 -1.6,2.8zm-1.6,3.2c-0.4,0.8 -0.8,1.2 -0.8,2c-0.4,-0.4 -0.8,-1.2 -0.8,-2c0,-0.4 0,-0.8 0.4,-1.2c0.4,0.8 0.8,1.2 1.2,1.2zm1.6,11.2c2,2 4,4 6,5.2c-0.4,1.2 -1.2,2 -1.6,3.2c-2.4,-1.6 -4.8,-3.6 -6.8,-6c-1.6,-1.6 0.8,-4.4 2.4,-2.4zm9.2,6.8c0.8,0.4 1.2,0.4 2,0.8c-0.4,1.2 -0.4,2.4 -0.8,3.6c-1.2,-0.4 -2,-0.8 -3.2,-1.2c1.2,-1.2 1.6,-2.4 2,-3.2zm5.6,1.6c0.8,0 1.6,0.4 2.4,0.4c2.4,0 2.4,4 0,3.6c-1.2,0 -2,-0.4 -3.2,-0.4c0.4,-1.2 0.8,-2.4 0.8,-3.6zm7.2,74c-1.6,-0.8 -3.2,-1.6 -4.8,-2c0,-0.8 -0.4,-1.6 -0.4,-2c2,0 3.6,0 5.2,0.8c0,1.2 0,2 0,3.2zm-10.4,-1.6c-0.4,2.4 -2,4.8 -4.4,5.6c-2.8,0.8 -5.6,-0.4 -6.8,-2.8c0,0 0,0 0,0c2,-0.8 4.4,-2 6.8,-2.8c1.2,0 2.8,0 4.4,0zm-17.2,10.4c2,-1.2 3.6,-3.2 6,-2c4,2 0.8,5.6 -2.8,8c-0.4,-1.2 -0.8,-2 -0.8,-3.2c-0.4,-0.8 -1.2,-1.6 -2.4,-1.2c-0.8,0.4 -1.6,1.2 -1.2,2.4c0.4,1.2 0.8,2.4 1.2,3.6c0,0 -2,1.6 -2.4,2c-0.4,0.4 -5.2,0.4 -4.8,-1.6c0.8,-2.4 0.4,-4 -0.4,-6.4c-0.4,-0.4 0,-1.6 0.4,-1.6c0.8,-0.8 2,-1.2 3.2,-0.8c1.2,0.4 2.4,1.6 4,0.8zm2.8,10c4,-2.4 7.6,-4.8 11.2,-8c1.6,1.2 2.8,2.4 4.4,3.6c-8.4,10 -20,16.8 -31.6,23.2c-4.8,2.8 -10,5.2 -15.6,5.6c-0.4,0 -0.4,0 -0.8,0c1.6,-3.2 3.2,-6.4 4.8,-9.6c9.6,-3.2 18.8,-9.2 27.6,-14.8zm-14,5.6c-0.8,0.4 -3.2,1.6 -3.2,1.6c-0.4,0.4 -4,1.6 -5.2,2.4c-0.4,0.4 -2,0.4 -2.4,0.4c-0.4,0 -0.4,0 -0.8,0c1.2,-2.8 2.4,-5.2 3.2,-8c0.4,0 0.4,0 0.8,0c0.8,0 1.2,0.8 2,1.2c0,0 0.4,0.4 0.4,0.4c0.4,0 0.8,-0.8 1.2,-0.8c1.2,-1.2 3.2,-2 4.8,-0.8c0.8,0.8 0.4,2.8 -0.8,3.6zm-30.8,-14c-0.4,0.4 -2.8,1.6 -2.8,1.6c0,0 -0.4,0 -0.4,0c-1.2,0 -2.4,0 -3.2,0c0,0 -0.4,0 -0.4,0c0,0 0,0 0,0c0,0 0,0 0,0c0.8,-0.4 2,-0.8 2.8,-1.6c0.8,-0.4 1.6,-1.2 2.8,-1.6c1.2,-0.8 2,-1.6 3.2,-2.4c1.2,0 2.8,-0.4 4,-0.4c-2,2 -4,3.2 -6,4.4zm-11.6,0c-0.4,0.4 -1.2,0.4 -1.6,0.8c-0.4,0 -3.6,0.8 -5.2,0.4c0,0 0,0 0,0c-0.4,0 -0.4,0 -0.8,0c1.2,-0.4 2.4,-1.2 3.6,-1.6c2,-0.8 3.6,-2 5.2,-3.2c0.4,-0.4 1.2,-0.8 1.6,-1.2c0.4,0.4 0.8,0.8 1.6,1.2c0.4,0 0.4,0.4 0.8,0.4c-0.8,0.4 -1.6,1.2 -2.4,1.6c-1.6,1.2 -2.4,1.6 -2.8,1.6zm2.8,-13.2c0.8,0.8 1.6,1.2 2.4,2c-0.8,0.8 -2,1.6 -2.8,2.4c-0.8,-0.8 -1.6,-1.6 -2.4,-2c0.8,-1.2 2,-1.6 2.8,-2.4zm6,4.4c0,0 0,0 0,0c0.4,0.4 0.4,0.8 0.4,1.2c-0.8,0.8 -1.2,1.6 -2,2c-0.4,-0.4 -1.2,-0.8 -1.6,-1.6c0.8,-0.8 2,-1.6 2.8,-2.4c0,0.8 0.4,0.8 0.4,0.8zm-0.8,-5.2c-0.8,-0.8 -1.6,-1.2 -2.4,-2c0.4,-0.4 0.8,-0.8 1.2,-1.2c0.8,1.2 1.2,2 1.2,3.2c0.4,0 0,0 0,0zm-3.6,-6.8c0.4,0.4 0.4,0.4 0.8,0.8c-0.8,0.8 -1.6,1.2 -2,2c-0.8,-0.8 -1.6,-1.2 -2.8,-2c0.8,-0.8 1.6,-1.2 2.4,-2c0.4,0.4 0.8,0.8 1.6,1.2zm-7.2,7.2c-0.8,-0.8 -1.6,-1.6 -2.8,-2.4c0.8,-0.4 1.6,-1.2 2.8,-2c0.8,0.8 2,1.6 2.8,2c-0.8,1.2 -2,1.6 -2.8,2.4zm-5.6,-4.8c-0.8,-0.8 -2,-1.6 -2.8,-2.4c0.4,-0.4 0.8,-0.4 1.6,-0.8c0.4,0 0.8,-0.4 1.2,-0.4c0.8,0.8 2,1.6 2.8,2c-0.8,0.4 -2,1.2 -2.8,1.6zm-16.4,-4.4c0,0 0,0 0,0c0,0 0,0 0,0c0,0 0,0 0,0zm-3.2,-3.6c0.4,0 0.8,0 1.2,0c-0.4,0 -0.8,0 -1.2,0zm5.2,-15.2c0.4,-0.4 1.2,-0.4 1.6,-0.8c0,0 0,0 0.4,0c0.4,0.4 0.4,1.2 0.8,1.6c-0.8,0.4 -1.2,0.4 -2,0.8c-0.4,-0.8 -0.4,-1.2 -0.8,-1.6zm-2,-7.2c0.8,0.8 1.6,2 2.4,2.8c-0.4,0.4 -1.2,0.8 -1.6,0.8c-0.4,-0.8 -1.2,-1.6 -1.6,-2.4c-0.4,-0.4 0,-0.8 0.8,-1.2zm0,19.6c3.6,-1.6 4,-4.4 3.6,-7.2c0.8,-0.4 1.2,-0.8 2,-1.2c0.4,2.4 0.4,4.4 0,6c-2,4.8 -10.8,6.4 -14.4,2.8c0,-0.4 -1.2,-2.8 -1.2,-2.8c0,-0.4 -0.4,-0.4 -0.4,-0.8c-0.4,-0.4 -0.8,-1.2 -0.8,-1.2c-4.8,-4.8 -8.8,-2 -9.2,-0.8c0,0 0,0.4 0,0.4c0,0.4 0,0.4 0,0.8c0.4,1.6 1.2,3.2 2.4,4.4c0,0 0.4,0.4 0.4,0.4c0,0 0,0 0,0c1.2,1.2 2.8,1.6 4.4,2c1.2,0.4 2.4,0.4 3.2,0.4c0.8,0 1.2,0 1.2,0.4c0.4,0.4 0.4,1.2 0.4,2c0,0 0,0.4 -0.4,0.4c-0.4,0.4 -0.8,0.8 -1.2,0.8c-7.2,0.4 -14.8,-5.2 -14.4,-12.8c0,-1.2 3.2,-6.8 10,-4c3.2,1.2 3.6,4 5.6,6c2,2 6,5.2 8.8,4zm10.4,10.4c1.2,0.8 2,1.6 3.2,2.8c-0.8,0.4 -1.6,1.2 -2.8,1.6c-0.8,-0.8 -2,-2 -2.8,-2.8c0.8,-0.8 1.6,-1.2 2.4,-1.6zm6,5.2c0.8,0.8 1.6,1.6 2.8,2.4c-0.8,0.4 -2,1.2 -2.8,1.6c-0.8,-0.8 -1.6,-1.6 -2.4,-2.4c0.4,-0.8 1.2,-1.2 2.4,-1.6zm5.2,4.4c0.8,0.8 1.6,1.6 2.8,2.4c-1.6,1.2 -2.8,2 -4.4,2.8c-0.8,0.4 -2,0.8 -3.2,1.6c-2.4,0.8 -4.8,1.6 -7.6,2c-0.4,0 -1.6,0.4 -2,0.4c-1.2,0 -2.4,-0.4 -3.2,-0.4c6.4,-2.4 12.4,-5.2 17.6,-8.8zm4.4,65.6c0,-0.4 0,-0.8 0.4,-1.2c0,-0.4 0.4,-0.4 0.4,-0.8c1.2,0.4 2.4,0.8 3.6,1.2c-0.4,0.4 -0.8,1.2 -1.6,1.6c-0.8,-0.4 -2,-0.4 -2.8,-0.8zm106.8,-38.8c-1.2,-1.6 -2.4,-3.2 -3.2,-4.8c-0.8,-1.2 -1.6,-2 -2,-3.2c0.4,-0.4 1.2,-0.8 1.6,-0.8c0,0 0.4,0 0.4,-0.4c0,0 0,0 0,0c0.8,1.2 1.6,2 2.4,3.2c1.6,2 3.2,4 4.8,6c-1.6,0.4 -2.8,0.4 -4,0zm8,0c-2,-2.4 -4,-5.2 -5.6,-7.6c-0.8,-0.8 -1.6,-2 -2.4,-3.2c0,0 -0.4,-0.4 -0.4,-0.4c1.6,-0.8 3.2,-2 4.8,-2.8c0,0.4 0.4,0.4 0.4,0.8c0.8,1.2 1.2,2 2,3.2c0.8,1.2 1.6,2.8 2.8,4c0.8,1.6 2.4,3.2 3.6,4.8c-1.6,0.4 -3.6,0.8 -5.2,1.2zm8.8,-2.4c-1.2,-1.6 -2.4,-2.8 -3.2,-4.4c-1.2,-1.6 -2.4,-3.2 -3.2,-5.2c-0.8,-0.8 -1.2,-2 -2,-2.8c-0.4,-0.4 -0.4,-0.8 -0.8,-0.8c1.6,-0.8 3.2,-1.6 5.2,-2c2,2.8 4,5.6 6,8.4c1.2,1.6 2,3.2 3.2,4.4c-2,1.2 -3.6,2 -5.2,2.4zm4,-18c3.2,4 6.4,8 9.6,12c-1.6,0.8 -3.2,2 -4.8,2.8c-0.8,-0.8 -1.6,-1.6 -2,-2.4c-2.4,-3.6 -4.8,-6.8 -7.2,-10.4c1.2,-0.8 2.8,-1.6 4.4,-2zm-0.4,-76c-0.4,-2.4 -0.8,-5.2 -1.2,-7.6c7.6,6.8 16.4,12 26,15.6c0.4,2 1.2,3.6 2,5.6c-10,-2.8 -18.8,-7.2 -26.8,-13.6zm23.6,3.6c-9.6,-4 -18.4,-10 -26,-17.2c-0.8,-4.4 -2,-8.4 -3.6,-12.8c3.6,4 6.8,8 10.8,11.6c5.2,5.2 11.2,10 18,13.2c0,2 0.4,3.6 0.8,5.2zm-37.6,2.4c-4.4,-1.2 -8.4,-2 -12.8,-3.2c0.4,-0.8 1.2,-1.2 2,-1.6c4,-2 8,0.8 10.8,4.8zm-16.4,-40.8c-0.8,-0.4 -1.2,-0.8 -2,-1.2c0.8,-0.8 2,-1.6 2.8,-2.4c0.4,0.4 1.2,0.8 1.6,1.2c-0.4,0.8 -1.6,1.6 -2.4,2.4zm-4.8,-3.6c-0.8,-0.4 -1.6,-1.2 -2.8,-1.6c0.4,-0.4 0.4,-0.8 0.8,-0.8c0.4,-0.8 1.2,-1.6 1.6,-2c1.2,0.4 2.4,1.2 3.2,2c-0.8,0.8 -1.6,1.6 -2.8,2.4zm-5.6,-3.2c0,0 -0.4,0 -0.4,0.4c-2.4,-0.8 -4.8,-1.2 -7.6,-0.8c-1.6,0 -3.2,0 -4.8,0.4c-0.4,0 -0.4,0 -0.8,0.4c-0.4,0 -0.4,0 -0.8,0c0,0 -0.4,0 -0.4,0c-4,1.2 -6.8,3.2 -8.8,6c-0.4,0.4 -0.8,0.8 -1.2,1.6c-0.8,-0.8 -1.6,-1.6 -2.8,-2.4c2.8,-4.4 7.2,-7.6 13.6,-8.8c6,-1.2 11.2,-0.8 15.6,0.8c-0.4,0.8 -1.2,1.6 -1.6,2.4zm-90.4,98c-0.4,-0.4 -1.2,-0.8 -1.6,-1.2c1.2,-0.4 2.4,-0.4 3.6,0c-0.8,0.4 -1.2,0.8 -2,1.2zm-11.6,-49.2c-4.4,0 -8.4,-1.2 -12,-3.6c0.4,-0.8 0.8,-1.6 1.2,-2.4c2.4,1.6 6.4,4 10.8,6zm-29.2,6.4c0.4,0 0.4,0 0.8,0c4.4,0.8 8.8,2.4 12.8,4.8c1.2,0.8 1.2,2 0.4,2.8c-4.8,-2 -10,-4 -15.2,-5.2c0,-0.4 0,-0.8 0,-1.2c0,-0.4 0.4,-0.8 1.2,-1.2zm-21.2,18c0.8,-2.4 5.2,-8 5.2,-8.4c1.6,-1.6 3.2,-3.6 4.8,-4.8c0,0 0,0 0.4,0c0.8,0 1.6,0.4 2.4,0.4c0,0 0,0 0,0c0.8,0 2,0.4 2.8,0.4c1.6,0.4 3.2,0.8 4.8,1.2c0,0 0,0 0,0c4.8,1.2 9.2,2.8 13.6,4.8c1.6,0.8 2,2 2.8,2.4c-0.4,0.4 -0.8,0.8 -1.2,1.6c0,0 -0.8,0.4 -1.2,0.4c-5.6,-1.6 -11.2,-4 -17.2,-4.4c-2,0 -5.2,0 -8,1.2c-0.4,0 -1.2,0.4 -1.6,0.8c-2.4,2.8 -4.8,7.6 -4,10c0,0 0,0.4 0,0.4c3.2,2.4 8.4,3.6 6,9.2c-0.4,0.8 -2.4,3.2 -2.8,3.6c-0.4,0.4 -0.8,0.8 -1.2,1.2c0,0 -0.4,0.4 -0.4,0.4c-1.2,1.2 -3.2,0 -3.2,-1.6c0,-0.4 0.4,-0.8 0.4,-0.8c4.8,-4.8 0,-6.8 -2.4,-10c0,0 0,0 0,0c-0.8,-3.2 -0.8,-5.6 0,-8zm17.6,39.2c-5.2,-1.2 -9.6,-5.2 -11.6,-10.4c-0.4,-0.8 0,-1.6 0.8,-2c3.6,4.4 8,8.4 12.4,12.4c-0.4,0 -0.8,0.4 -1.6,0zm32.4,-2.4c0.8,0.8 1.6,1.6 2.4,2.4c-4.4,2.4 -9.2,4 -14.4,5.2c0,0 -0.4,0 -0.4,0.4c-0.4,0 -0.4,-0.4 -0.8,-0.4c0,0 -0.4,0 -0.4,0l-2.8,-1.2c6,-1.6 11.2,-3.6 16.4,-6.4zm-40.4,54.8c0.4,-4 1.6,-8 3.6,-11.6c4.8,-9.6 12.4,-17.6 20.8,-24.8c0,0 0.4,0 0.4,0c3.2,-2 6.4,-3.2 10,-3.6c0,0 0,0 0,0c0.4,0 10.4,0 10.4,3.6c0,0.4 -16,21.2 -19.6,32.8c-0.8,2.4 2.8,3.2 3.6,0.8c4,-12.8 12.4,-24 22.4,-33.2c2.8,-1.6 6.4,-2.8 9.6,-2.4c0.4,0 14.8,0.4 13.2,4.4c-4.8,12.4 -11.2,24 -18.4,35.2c-4.8,7.2 -9.6,15.6 -16,21.6c-7.2,4.8 -14.8,8 -23.6,6.4c-3.6,-1.6 -6.4,-4 -9.2,-6.4c-5.2,-6 -8,-14.8 -7.2,-22.8zm230,-56c-1.6,2 -3.2,3.6 -4.8,5.6c-6.8,8 -14,16.4 -22.8,22.8c-8.4,6.4 -18,11.2 -28,12.8c-4.4,0.8 -9.2,0.8 -13.6,0.4c-1.6,-0.4 -3.6,-0.8 -5.6,-1.2c-3.2,-1.2 -6.8,-2.4 -10.4,-2.8c-2.4,-0.4 -5.2,-0.8 -7.6,0c-0.4,0 -1.2,0.4 -1.6,0.4c-2.4,0.8 -4.8,1.2 -7.2,1.6c-5.6,1.2 -10,3.2 -14.8,6.4c-3.6,2.4 -6.8,4 -11.2,4.8c-0.8,0 -1.6,0 -2.4,0c-2,0 -3.6,0 -5.6,0.8c-3.6,1.2 -6.8,4 -9.6,6.4c-1.6,1.6 -3.6,3.2 -5.2,4.8c-4,3.6 -8.4,6.4 -14,6.4c-0.4,0 -0.8,0 -1.2,0c1.2,-1.2 2.4,-2.8 3.6,-4c9.6,-2 14.4,-12.4 23.2,-16.4c4.4,-2 8.8,-1.2 13.2,-2.4c4.8,-1.2 8.4,-5.2 12.4,-7.2c3.6,-2 7.6,-2.8 11.6,-3.6c2.4,-0.4 12.4,-1.2 14.8,-1.2c1.6,0 16,3.6 21.6,3.6c8.8,0 17.6,-2.4 25.2,-6.8c2.8,-1.6 5.6,-3.2 8,-5.2c5.6,-4 10.8,-8.8 15.6,-14c0.4,0 0.4,-0.4 0.4,-0.8c1.6,-2 3.2,-3.6 4.8,-5.6c1.6,-1.6 2.8,-3.2 4.4,-5.2c3.6,-4 6.8,-8.4 10.4,-12.4c3.6,-4.4 8,-8.4 10.8,-13.6c2.8,-5.2 2.8,-10.8 1.6,-16c1.2,-0.8 2,-1.6 3.2,-2.4c2.8,8 1.6,16.4 -3.6,23.6c-3.2,4.4 -6.4,8.4 -10,12c-1.6,1.6 -3.2,3.6 -4.8,5.6c0,1.6 -0.4,2 -0.8,2.8zm-82,-176.4c-0.4,0.4 -0.8,0.8 -1.6,1.2c-1.2,0.8 -2,2 -3.2,3.2c-3.6,3.6 -7.2,7.6 -10.8,11.6c-1.6,1.6 1.2,4.4 2.4,2.4c4,-4.8 8,-9.2 12.8,-13.6c1.2,-1.2 2,-2 3.2,-2.8c0.4,-0.4 0.8,-0.4 0.8,-0.8c0.8,0.4 2,0.8 2.8,1.2c0,0 -0.4,0 -0.4,0.4c-1.2,0.8 -2,2 -3.2,2.8c-2.8,2.8 -6,5.6 -8.4,8.4c-1.6,1.6 0.8,4.4 2.4,2.4c3.2,-3.6 6.8,-6.8 10.4,-10c1.2,-0.8 2,-2 3.2,-2.8c1.2,0.4 2.4,0.8 3.2,0.8c-1.2,0.8 -2.4,1.6 -3.6,2.8c-2,1.6 -3.6,3.6 -5.2,5.6c-1.2,2 1.6,3.6 3.2,2c0.4,-0.8 1.2,-1.6 1.6,-2c0,0 0.4,-0.4 0.4,-0.4c1.2,-1.2 2.4,-2.4 4,-3.6c1.2,-0.8 2.4,-1.6 4,-2.4c0.4,0.4 1.2,0.4 1.6,0.8c-3.2,1.6 -6.4,4 -9.2,6.4c-0.4,0.4 -0.4,0.8 -0.4,1.2c0,1.2 2,2.4 3.2,1.2c2.4,-2 4.8,-4 7.2,-5.2c0.8,0.8 1.6,1.2 2.4,2c0.8,-0.4 1.2,-0.8 2,-0.8c2.8,-1.2 5.2,-2.4 8,-4c5.6,-3.2 9.2,-8 12,-14c4,-10 6.4,-20 11.2,-29.6c5.6,-10.8 12.8,-20.8 20,-30.8c3.6,-4.8 8.4,-11.2 15.2,-6.8c2,1.2 0,4.4 -1.6,3.2c0,0 0,0 0,0c-6.8,-4.8 -21.6,21.6 -24.4,26c-5.6,9.2 -10,18.4 -13.2,28.8c-2.4,7.6 -4.8,15.6 -10.4,21.6c-4.4,4.4 -10,6.4 -15.6,9.2c5.6,4.8 10.8,10.8 14.8,16.8c4,-1.6 7.6,-4.4 10.4,-8c2.8,-2 4.4,-4.4 6.4,-7.2c2.4,-3.6 4.4,-6.8 8,-9.2c0.8,2 2,3.6 2.8,5.6c4.4,9.6 0.4,22.4 -8.8,28c-0.8,2.4 -1.6,4.4 -2.8,6.4c9.2,-3.6 18,-9.2 18.4,-20c0,-2.4 3.6,-2.4 3.6,0c-0.4,15.2 -14.8,22 -27.6,26c0,0 0,0.4 0,0.4c6,-1.2 12.4,-0.8 18.4,-4c7.6,-4 12.8,-10.4 14.8,-18.8c0.4,-2.4 4,-1.2 3.6,0.8c-1.6,7.6 -6,14.4 -12.4,18.8c-3.6,2.4 -8,4.4 -12.4,5.2c-3.2,0.8 -6.8,0.8 -10.4,1.2c3.6,5.2 8,9.6 14,12c6.8,3.2 20.4,6 26.4,0c0.8,0.8 1.2,1.6 2,2.4c0,0 0,0 0,0c0,0 0,0.4 -0.4,0.4c0,0 -0.4,0.4 -0.4,0.4c-5.6,4.4 -15.2,4.4 -22,2.8c-7.2,-1.6 -13.6,-5.6 -18.4,-10.8c0.4,2 0.8,4 0.8,6.4c4,7.6 10,14.4 18.4,16c8.4,1.6 18.4,0 23.2,-6c0.8,1.2 1.6,2 2,3.2c0,0 -0.4,0.4 -0.4,0.4c-4.8,5.6 -11.6,6.8 -18.8,6.8c-10.4,0 -18,-5.2 -23.6,-12.4c0,1.6 0.4,3.2 0.4,4.8c3.2,6.8 9.2,12.4 16.8,14.8c6,2 12,0.8 17.2,-1.6c0.8,-0.4 1.2,-0.4 2,-0.8c0,0.8 0.4,1.6 0.4,2.4c-1.6,1.2 -2.8,2 -4.4,3.2c-4.4,1.6 -9.2,2 -14,0.8c-7.6,-1.6 -13.2,-6 -17.6,-11.6c0.4,3.6 0.4,6.8 0.8,10.4c0,0.8 0,1.6 0.4,2c-6,-3.2 -11.2,-8 -16,-12.8c-6,-6 -11.6,-12.8 -16.8,-19.6c-0.8,-1.6 -1.6,-2.8 -2.4,-4c-4.8,-8 -11.2,-15.2 -19.2,-19.6c-5.2,-2.4 -10.8,-3.6 -16.4,-3.6c5.2,-2 10.8,-2.4 16.4,-1.2c2.4,0.4 3.2,-2.8 0.8,-3.6c-10.8,-2.4 -20.8,1.2 -29.2,6.8c-0.4,0 -1.2,0.4 -1.6,0.4c5.6,-6 13.2,-10.4 22,-12c2.4,-0.4 1.2,-4 -0.8,-3.6c-12,2 -22,9.2 -28.4,19.2c-1.2,0.8 -2.8,2 -4,2.8c2.4,-5.2 5.6,-10 10,-14c1.6,-1.6 -0.8,-4 -2.4,-2.4c-6.8,6.4 -11.2,14.4 -13.2,22.8c-1.6,2 -3.2,4.4 -4,7.2c0.8,-8.4 2.4,-16.8 8,-23.2c1.6,-1.6 -1.2,-4.4 -2.4,-2.4c-8.4,9.6 -8.8,22.8 -9.2,35.2c-0.4,0.4 -0.8,0.8 -1.2,1.2c-2,2 -4.4,2.8 -6.4,4.4c-5.2,4.4 -6,12.4 -10,18c-1.6,-0.8 -2.8,-1.6 -4.4,-2.4c-2,-1.2 -4,2 -2,3.2c1.2,0.8 2.4,1.6 3.6,2c-0.8,0.8 -2,1.6 -3.2,2.4c-3.2,-2 -6.4,-3.6 -9.6,-5.2c-2,-1.2 -4,2 -2,3.2c2.8,1.2 5.2,2.8 8,4.4c-1.2,0.8 -2.8,1.6 -4,2.4c-4,-2.4 -8,-4.4 -12.4,-6.4c-2,-0.8 -4,2 -2,3.2c3.6,1.6 6.8,3.2 10.4,5.2c-1.6,0.8 -2.8,1.2 -4.4,2c-6,-4 -12.4,-7.2 -18.8,-10.4c1.6,-1.2 3.6,-2.4 5.2,-3.6c2,-1.6 4,-3.6 6,-5.6c17.6,-8 27.6,-26.4 24,-46.4c-0.4,-2.4 -4,-1.2 -3.6,0.8c2,12 -1.2,23.6 -8.8,32.4c0.8,-1.6 1.2,-2.8 2,-4c3.6,-8.8 4,-19.2 4.8,-28.8c0.4,-2.4 0.8,-4.8 1.2,-7.6c-3.6,0 -7.6,0 -11.2,-0.4c0.8,-0.8 1.2,-1.6 2,-2c2.8,0 6,0 8.8,0.4c2.4,0.4 2.4,-3.6 0,-3.6c-2,0 -3.6,-0.4 -5.6,-0.4c0.8,-0.8 1.2,-1.2 2,-2c1.6,0.4 3.2,0.8 4.8,0.8c0.8,0 2,-0.8 2,-2c0,-1.2 -0.8,-1.6 -2,-2c-0.8,0 -1.6,-0.4 -2,-0.4c0.8,-0.8 1.2,-1.2 2,-2c0.4,0.4 0.8,0.4 1.2,0.8c2,1.2 4,-2 2,-3.2c0,0 -0.4,0 -0.4,-0.4c2,-2 4,-4 5.6,-6c-0.8,-1.6 -1.6,-3.2 -2.4,-4.8c0,0 -1.6,-3.2 -2.4,-4.4c0,-0.4 -0.4,-0.8 -0.4,-0.8c-1.2,-2.4 -2.8,-5.2 -4.4,-7.6c-1.2,-2 2,-4 3.2,-2c1.6,2.8 8,14.4 9.2,16.4c1.2,-1.2 2,-2 3.2,-3.2c-2.8,-4.8 -5.6,-10 -8.4,-15.2c-1.2,-2 2,-4 3.2,-2c2.4,4.8 4.8,9.6 7.6,14.4c1.2,-1.2 2,-2 3.2,-3.2c-0.4,-0.8 -4.8,-10.8 -6,-14.4c-0.8,0.4 -1.6,0.4 -2,0.8c-2.4,0.8 -3.2,-2.8 -0.8,-3.6c3.2,-0.8 6,-3.2 7.2,-6.4c-3.6,-2 -9.2,2.4 -12,-0.8c-0.8,-0.8 -0.8,-2.4 -1.2,-3.6c-0.4,-2.8 -0.4,-6 0.8,-8.4c1.2,-2.4 4.4,-4.4 7.2,-3.2c1.6,0.8 2.4,2.4 4,2.4c0.8,0 1.2,-0.4 2,-0.8c-2.8,-2.8 -5.6,-5.2 -9.2,-7.2c-2,-1.2 -0.4,-4.4 2,-3.2c3.2,2 6.4,4.4 9.2,6.8c0,-0.4 0,-0.8 0.4,-1.2c0,-0.4 0,-0.8 0.4,-1.6c-2.8,-2.8 -6,-5.2 -9.2,-7.6c-2,-1.2 0,-4.4 2,-3.2c2.8,2 5.6,4 8,6.4c0,-1.2 0.4,-2.4 0.4,-4c-2.4,-2 -4.8,-4.4 -7.2,-6.4c-1.6,-1.6 0.8,-4 2.4,-2.4c1.6,1.6 3.2,2.8 5.2,4.4c0,-0.8 0,-2 0,-2.8c-1.6,-1.6 -3.2,-3.2 -4.4,-4.4c-1.6,-1.6 0.8,-4 2.4,-2.4c0.8,0.8 1.6,1.6 2,2c0,-1.6 0,-3.6 0,-5.2c0,-0.4 0,-1.2 0.4,-1.6c0.8,-0.8 2,-0.4 3.2,0c5.2,3.6 6.4,11.2 6.4,17.6c0,7.6 -0.4,15.6 -3.2,22.4c-1.6,3.6 -3.6,7.2 -6.4,10c1.2,4.8 2.8,10 4.4,14.8c1.2,-0.4 2.4,-0.8 3.6,-1.2c-1.6,-4.4 -2.8,-9.2 -4.4,-14c-0.8,-2.4 2.8,-3.2 3.6,-0.8c1.2,4.8 2.8,9.2 4.4,14c1.6,-0.4 3.2,-0.8 5.2,-0.8c-1.2,-4.4 -2.8,-8.4 -4,-12.8c-0.8,-2.4 2.8,-3.2 3.6,-0.8c1.6,4.4 2.8,8.8 4.4,13.2c4,-0.4 7.6,-0.4 11.6,-0.4c-7.2,7.6 -14.8,15.2 -20,24.4c0,0.4 -0.4,0.4 -0.4,0.8c-0.8,-5.2 3.2,-10.8 6.4,-14.8c1.6,-2 -1.2,-4.4 -2.4,-2.4c-5.2,6.8 -10.4,15.6 -5.2,23.6c0,0.4 0,0.4 0,0.4c-1.6,-0.8 -3.2,-2.4 -4,-4.4c-1.2,-3.6 0,-7.2 0.8,-10.4c0.8,-2.4 -2.8,-3.2 -3.6,-0.8c-1.6,5.2 -2.8,11.6 1.2,16.4c2.8,3.6 7.2,4.8 11.2,2.8c0,0 0,0 0.4,0c1.2,-0.4 2.4,-1.6 3.6,-2.4c0,0 0,0 0.4,-0.4c5.6,-2.4 10.8,-5.6 15.6,-9.6c5.2,-4 9.2,-9.6 14,-14c1.2,-1.2 2,-2 3.2,-3.2c0,0 0.4,-0.4 0.4,-0.4c-2,-0.4 -0.4,-0.8 0,-0.8zm54.4,13.2c0.4,-2 1.2,-4 2,-6c1.6,-3.2 4.4,-5.2 7.6,-6.8c0,0.4 0,0.4 0,0.8c0,1.2 0,2 0.4,3.2c-4,2.8 -6.8,7.6 -9.6,11.6c-0.4,-0.8 -0.4,-1.6 -0.4,-2.8zm-0.8,-8c0,-0.8 0,-2 0.4,-2.8c0.8,-3.2 3.2,-6.4 6.8,-7.2c0.4,0 1.2,0 1.6,0c0.8,0.4 1.2,0.8 1.2,1.6c-3.2,1.2 -6.4,3.2 -8.8,6c-0.4,0.8 -0.8,1.6 -1.2,2.4zm-84,-39.6c0.4,12.8 8,22.8 16.8,31.2c2.8,0.4 5.6,1.2 8.4,2c-0.8,0.8 -1.6,1.2 -2,2c-1.2,1.2 -2,2 -3.2,3.2c0,0 0,0 0,0c-2.8,3.2 -5.6,6.4 -8.8,9.6c-2,2 -4.4,3.6 -6.8,5.6c0.4,-0.8 1.2,-1.2 1.6,-2c0.4,-0.4 0.8,-0.8 1.2,-1.2c0.8,-0.8 1.6,-2 2.4,-2.8c0.4,-0.8 0.8,-1.2 1.6,-2c0.4,-0.4 0.4,-1.2 0,-1.6c0,-0.4 0,-0.8 0,-1.2c-1.2,-2.8 -4.8,-1.6 -6.8,-0.8c-4,1.6 -7.2,5.6 -9.6,8.8c-0.4,0.8 -1.2,1.6 -2,2.4c2,-2.8 4,-5.2 6,-7.6c4,-4.4 7.6,-8.8 11.6,-13.2c0.4,-0.4 0.4,-0.8 0.4,-1.2c0,0 0,-0.4 0,-0.4c0,-0.4 -0.4,-0.8 -0.8,-1.2c-6.8,-7.6 -12,-16 -12.8,-26.4c0,-0.8 0,-1.6 0,-2.4c-0.8,-3.2 2.8,-3.2 2.8,-0.8zm-64.4,50.8c0.4,-1.2 0.8,-2.4 0.8,-3.6c0.8,-2.8 0.8,-5.6 0.8,-8.4c0,-4.4 0,-9.2 0.4,-13.6c0.8,-12.4 3.2,-24.8 7.2,-36.8c4,-12.4 8.8,-24.4 14.4,-36.4c2.8,-6 5.2,-12 8.4,-17.6c2,-3.2 3.6,-6 7.6,-5.6c2.4,0 2.4,3.6 0,3.6c0,0 0,0 0,0c-1.2,0 -2,0.8 -3.2,2c-2.4,2.4 -4.4,7.2 -6.4,11.6c-1.6,3.2 -2.8,6.4 -3.2,8c-3.2,7.6 -6.4,14.8 -9.2,22.8c-5.2,13.6 -9.6,28 -11.2,42.4c-0.8,7.6 -0.4,15.2 -0.8,22.4c-0.4,6 -2.4,11.2 -4.4,16.8c-0.8,-1.2 -1.6,-2.4 -2.4,-3.6c0.4,-1.6 0.8,-2.8 1.2,-4z"/>
  </g>
 </g>
</svg>