<svg width="286" height="266" xmlns="http://www.w3.org/2000/svg" style="vector-effect: non-scaling-stroke;" stroke="null">
 <!-- Created with Method Draw - http://github.com/duopixel/Method-Draw/ -->

 <g stroke="null">
  <title stroke="null">background</title>
  <rect stroke="null" fill="none" id="canvas_background" height="268" width="288" y="-1" x="-1"/>
  <g style="vector-effect: non-scaling-stroke;" stroke="null" display="none" overflow="visible" y="0" x="0" height="100%" width="100%" id="canvasGrid">
   <rect fill="url(#gridpattern)" stroke-width="0" y="0" x="0" height="100%" width="100%"/>
  </g>
 </g>
 <g stroke="null">
  <title stroke="null">Layer 1</title>
  <g stroke="null" id="svg_12">
   <g stroke="null" transform="matrix(5.818642722268827,0,0,5.487795485756912,187.918526315144,527.510599247011) " id="svg_4">
    <path fill="#07216d" stroke="null" id="svg_5" d="m3.79519,-66.37118c-1.4,-1.1 -2.5,-2.7 -3.4,-4.7c-1.6,-3.7 -4.7,-6 -8,-6s-6.3,2.2 -7.9,5.9c-0.9,2.1 -2,3.6 -3.4,4.6c-0.6,0.5 -1.2,1 -1.8,1.6c-4.1,4.5 -4.8,11.1 -1.6,14.6c2.2,2.4 5.7,2.9 9.1,1.4c2.9,-1.3 8,-1.3 11,0c1.3,0.6 2.6,0.9 3.9,0.9c2,0 3.9,-0.8 5.2,-2.3c3.2,-3.5 2.4,-10.1 -1.6,-14.6c-0.5,-0.5 -1,-1 -1.5,-1.4zm1.7,14.7c-1.6,1.7 -4.2,2.1 -6.8,0.9c-1.7,-0.8 -4,-1.1 -6.3,-1.1s-4.6,0.4 -6.3,1.1c-2.6,1.2 -5.3,0.8 -6.8,-0.9c-2.6,-2.8 -1.9,-8.1 1.5,-11.9c0.5,-0.5 1,-1 1.5,-1.4c1.6,-1.2 2.9,-3 4,-5.4c1.3,-2.9 3.6,-4.7 6.1,-4.7s4.9,1.8 6.1,4.8c1,2.3 2.3,4.1 3.9,5.4c0.5,0.4 0.9,0.8 1.3,1.3c3.5,3.8 4.3,9.1 1.8,11.9z"/>
    <path fill="#07216d" stroke="null" id="svg_6" d="m-20.10481,-77.37118c-0.7,-2.5 -2.2,-4.4 -4.1,-5.3c-1.3,-0.6 -2.6,-0.7 -3.8,-0.3c-3.1,1.2 -4.5,5.4 -3.2,9.6c0.7,2.5 2.2,4.4 4.1,5.3c0.7,0.4 1.5,0.5 2.2,0.5c0.5,0 1.1,-0.1 1.6,-0.3c3.1,-1 4.5,-5.2 3.2,-9.5zm-6.1,7.6c-1.4,-0.7 -2.5,-2.2 -3.1,-4.1c-1,-3.1 0,-6.4 2,-7.2c0.3,-0.1 0.6,-0.2 0.9,-0.2c0.5,0 1,0.2 1.4,0.3c1.4,0.7 2.5,2.2 3.1,4.1l0,0c1,3.1 0,6.4 -2,7.2c-1,0.4 -1.8,0.2 -2.3,-0.1z"/>
    <path fill="#07216d" stroke="null" id="svg_7" d="m-17.00481,-78.77118c0.8,0.4 1.6,0.6 2.4,0.6c0.6,0 1.2,-0.1 1.7,-0.3c3.4,-1.3 4.9,-6 3.4,-10.7c-0.8,-2.7 -2.6,-5 -4.6,-6c-1.4,-0.7 -2.8,-0.8 -4.1,-0.3c-3.4,1.3 -4.9,6 -3.4,10.7c0.8,2.7 2.6,5 4.6,6zm-0.4,-14.8c0.3,-0.1 0.7,-0.2 1,-0.2c0.6,0 1.2,0.2 1.6,0.4c1.6,0.8 2.9,2.6 3.6,4.8c1.1,3.6 0.1,7.4 -2.2,8.2c-1,0.4 -1.9,0.1 -2.6,-0.2c-1.6,-0.8 -2.9,-2.6 -3.6,-4.8c-1.2,-3.6 -0.1,-7.4 2.2,-8.2z"/>
    <path fill="#07216d" stroke="null" id="svg_8" d="m12.59519,-82.87118c-1.2,-0.5 -2.5,-0.4 -3.8,0.3c-1.9,0.9 -3.4,2.9 -4.1,5.3l0,0c-1.3,4.2 0.1,8.5 3.2,9.6c0.5,0.2 1,0.3 1.6,0.3c0.7,0 1.5,-0.2 2.2,-0.5c1.9,-0.9 3.4,-2.9 4.1,-5.3c1.3,-4.3 -0.1,-8.6 -3.2,-9.7zm1.3,9c-0.6,1.9 -1.7,3.4 -3.1,4.1c-0.5,0.3 -1.4,0.5 -2.2,0.2c-2,-0.8 -2.9,-4 -2,-7.2l0,0c0.6,-1.9 1.7,-3.4 3.1,-4.1c0.4,-0.2 0.8,-0.3 1.4,-0.3c0.3,0 0.6,0 0.9,0.2c2,0.7 2.9,4 1.9,7.1z"/>
    <path fill="#07216d" stroke="null" id="svg_9" d="m-2.50481,-78.37118c0.6,0.2 1.2,0.3 1.8,0.3c0.8,0 1.6,-0.2 2.4,-0.6c2.1,-1 3.8,-3.3 4.6,-6.1c1.4,-4.8 -0.2,-9.7 -3.6,-11c-1.4,-0.5 -2.8,-0.5 -4.2,0.2c-2.1,1 -3.8,3.3 -4.6,6.1c-1.4,4.9 0.2,9.7 3.6,11.1zm-1.7,-10.5c0.7,-2.3 2,-4.1 3.6,-4.8c0.4,-0.2 0.9,-0.4 1.5,-0.4c0.3,0 0.7,0.1 1.1,0.2c2.4,0.9 3.5,4.9 2.4,8.6c-0.7,2.3 -2,4.1 -3.6,4.8c-0.6,0.3 -1.6,0.6 -2.6,0.2c-2.4,-0.9 -3.5,-4.9 -2.4,-8.6z"/>
   </g>
  </g>
 </g>
</svg>